# xmcd CD Database Entry
#
# Track frame offsets:
# 150
# 45942
# 115617
# 153197
# 211575
# 254617
# 287685
#
# Disc length: 4354 seconds
#
# Revision: 2
# Processed by: cddbd v1.4b41PL3 Copyright (c) Steve Scherf et al.
# Submitted via: tcd 2.0b
#
DISCID=51110007
DTITLE=9  , LA  MER
DYEAR=1900
DGENRE=
TTITLE0=9 - 1
TTITLE1=9 - 2
TTITLE2=9 - 3
TTITLE3=9 - 4
TTITLE4=LA  MER - 1
TTITLE5=LA  MER - 2
TTITLE6=LA  MER - 3
EXTD=
EXTT0=
EXTT1=
EXTT2=
EXTT3=
EXTT4=
EXTT5=
EXTT6=
PLAYORDER=
